<?xml version="1.0" standalone="no"?>
<!DOCTYPE svg PUBLIC "-//W3C//DTD SVG 20010904//EN"
 "http://www.w3.org/TR/2001/REC-SVG-20010904/DTD/svg10.dtd">
<svg version="1.0" xmlns="http://www.w3.org/2000/svg"
 width="539.000000pt" height="720.000000pt" viewBox="0 0 539.000000 720.000000"
 preserveAspectRatio="xMidYMid meet">
<metadata>
Created by potrace 1.16, written by Peter Selinger 2001-2019
</metadata>
<g transform="translate(0.000000,720.000000) scale(0.100000,-0.100000)"
fill="#000000" stroke="none">
<path d="M2821 6029 c-18 -6 -50 -21 -72 -34 -21 -14 -70 -33 -109 -44 -39
-10 -82 -29 -96 -42 l-24 -23 -41 23 c-35 20 -51 23 -105 18 -36 -2 -81 -14
-104 -26 -24 -12 -59 -21 -85 -21 -74 0 -184 -68 -259 -160 -103 -126 -129
-147 -207 -171 -40 -12 -86 -34 -103 -50 -23 -19 -39 -26 -54 -22 -27 7 -40
-21 -24 -48 15 -23 -1 -105 -30 -163 -27 -53 -97 -118 -149 -140 -67 -27 -74
-32 -74 -47 0 -7 53 -43 119 -80 146 -81 218 -138 307 -245 78 -92 138 -133
270 -184 46 -18 107 -43 135 -55 85 -38 244 -83 334 -96 73 -10 104 -10 215 6
141 19 144 19 193 9 28 -6 32 -10 32 -40 0 -36 -39 -152 -76 -226 -57 -113
-75 -194 -85 -368 -12 -237 -26 -335 -79 -560 -16 -67 -38 -146 -65 -230 -14
-47 -39 -132 -54 -190 -16 -58 -41 -145 -56 -195 -38 -124 -51 -181 -75 -320
-11 -66 -27 -153 -36 -194 -53 -263 -47 -507 20 -816 14 -60 32 -192 41 -293
16 -188 30 -259 70 -372 36 -99 36 -100 55 -100 25 0 34 18 19 36 -17 20 -45
99 -69 194 -11 41 -27 158 -36 260 -8 102 -27 235 -40 295 -41 181 -54 274
-54 397 0 102 24 370 35 388 2 3 13 64 24 136 28 173 39 225 67 314 13 41 32
107 43 145 11 39 34 120 51 180 82 290 119 425 129 475 29 141 41 246 47 380
7 200 18 255 82 410 62 152 82 218 82 271 0 47 19 59 135 87 96 22 271 106
393 187 77 51 528 492 589 575 41 56 70 137 60 165 -7 15 -47 22 -47 7 0 -5
-18 -18 -39 -30 -30 -17 -65 -24 -138 -30 -118 -9 -137 -6 -129 16 3 10 22 65
42 124 l36 107 -21 30 c-12 17 -21 45 -21 66 0 78 -42 115 -133 115 -66 0
-141 23 -184 56 -29 22 -42 26 -80 21 -25 -2 -59 -15 -76 -28 -21 -15 -32 -19
-35 -10 -11 32 -72 97 -111 118 -38 20 -53 22 -112 17 -54 -4 -81 -1 -129 15
-67 23 -62 23 -109 10z m109 -54 c17 -10 56 -14 119 -15 112 0 144 -15 190
-90 l30 -49 -30 -25 c-16 -14 -43 -33 -60 -43 -79 -47 -103 -138 -75 -295 43
-245 50 -448 17 -502 -22 -35 -138 -150 -187 -184 l-31 -21 -6 167 c-3 92 -12
190 -19 217 -9 33 -41 88 -93 160 -79 110 -116 150 -147 161 -19 6 -21 15 -43
184 -9 69 -24 147 -32 174 -15 48 -15 50 6 67 12 10 44 22 72 28 27 6 80 27
116 46 72 38 129 45 173 20z m-452 -110 c11 -10 3 -31 -40 -114 -49 -95 -53
-107 -52 -171 l0 -68 -35 -6 c-62 -10 -99 -7 -153 15 -42 16 -70 20 -130 17
-72 -3 -85 -7 -198 -66 -138 -72 -201 -86 -246 -57 l-26 17 28 29 c18 19 52
37 94 49 91 28 118 47 197 142 89 104 104 119 177 157 41 21 73 31 104 31 27
0 57 8 77 20 63 39 162 41 203 5z m979 -17 c32 -30 125 -58 193 -58 77 0 100
-18 100 -78 0 -30 7 -56 19 -71 18 -24 18 -26 1 -90 -11 -36 -28 -86 -39 -111
-19 -43 -21 -44 -68 -46 -26 0 -79 -7 -116 -15 -61 -12 -73 -12 -118 4 -55 20
-72 15 -110 -31 -27 -31 -42 -65 -90 -195 -36 -99 -50 -116 -49 -60 2 67 -20
296 -32 343 -7 25 -13 85 -13 134 l0 89 44 36 c24 20 71 62 105 94 34 32 68
62 76 67 26 17 73 11 97 -12z m-922 -65 c3 -21 10 -63 15 -93 5 -30 12 -80 15
-110 3 -30 9 -66 12 -79 5 -21 4 -22 -15 -12 -11 6 -45 14 -76 17 -54 6 -56 8
-62 41 -4 19 -4 51 -1 71 7 39 86 202 98 202 5 0 11 -17 14 -37z m-339 -304
c48 -16 73 -19 129 -14 l70 6 1 -214 1 -215 31 -63 c17 -35 33 -84 37 -109 14
-91 109 -221 191 -260 41 -21 94 -71 94 -91 0 -20 -61 -7 -126 27 -38 20 -89
47 -114 59 -25 13 -94 37 -155 53 -125 34 -308 118 -347 159 -40 41 -163 220
-198 286 -17 32 -60 100 -96 152 -35 51 -64 97 -64 101 0 5 21 10 47 11 33 1
76 16 152 54 58 28 122 58 141 65 52 20 139 17 206 -7z m371 -35 c14 -9 23
-25 24 -42 3 -76 18 -229 32 -327 9 -60 20 -150 26 -200 15 -128 26 -158 78
-210 38 -38 44 -50 36 -67 -9 -20 -9 -20 -38 4 -17 14 -44 32 -61 41 -65 34
-164 181 -164 245 0 13 -13 54 -30 92 -27 62 -30 79 -30 177 -1 59 -5 128 -10
153 -5 25 -6 71 -3 104 l6 58 56 -6 c31 -4 66 -13 78 -22z m172 -147 c102
-151 100 -147 111 -242 5 -49 10 -146 10 -215 -1 -124 -1 -125 -30 -157 -16
-18 -33 -33 -38 -33 -20 0 -74 71 -87 114 -8 26 -17 88 -21 139 -3 51 -13 133
-21 182 -14 88 -32 250 -33 309 l0 30 31 -30 c18 -16 52 -60 78 -97z m-1071
-36 c35 -53 79 -125 98 -161 19 -36 76 -123 127 -195 l92 -130 123 -62 c87
-44 158 -72 240 -94 64 -16 133 -38 152 -48 19 -10 62 -32 95 -50 33 -17 77
-34 98 -37 21 -4 34 -11 30 -15 -16 -16 -206 -22 -277 -10 -95 17 -242 59
-296 86 -25 12 -70 30 -100 40 -123 40 -233 102 -275 155 -47 61 -174 184
-221 215 -29 19 -87 54 -129 76 l-78 42 38 20 c88 45 174 162 190 257 7 39 9
43 19 26 6 -10 39 -62 74 -115z m2382 78 c-13 -46 -151 -198 -372 -410 -191
-183 -227 -211 -373 -292 -92 -51 -233 -112 -241 -104 -2 1 31 30 74 62 111
87 174 148 261 254 138 169 169 213 243 348 l74 134 130 3 c107 3 137 7 169
24 22 11 41 19 42 18 1 -1 -2 -18 -7 -37z m-557 -9 c17 0 59 7 93 16 110 27
111 25 37 -106 -35 -63 -80 -139 -100 -169 -53 -81 -244 -310 -296 -356 -131
-115 -248 -203 -282 -211 l-30 -7 26 29 c31 34 76 102 111 164 24 44 108 234
108 246 0 3 18 36 40 72 21 37 59 121 84 187 29 76 55 128 71 142 24 21 27 21
66 8 23 -8 55 -15 72 -15z m-419 -507 c-17 -72 -137 -273 -174 -293 -29 -16
-44 -1 -31 32 5 13 12 50 16 82 7 50 12 61 43 84 19 15 60 48 91 74 31 26 57
47 59 47 1 1 -1 -11 -4 -26z"/>
</g>
</svg>
