<?xml version="1.0" standalone="no"?>
<!DOCTYPE svg PUBLIC "-//W3C//DTD SVG 20010904//EN"
 "http://www.w3.org/TR/2001/REC-SVG-20010904/DTD/svg10.dtd">
<svg version="1.0" xmlns="http://www.w3.org/2000/svg"
 width="938.000000pt" height="938.000000pt" viewBox="0 0 938.000000 938.000000"
 preserveAspectRatio="xMidYMid meet">
<metadata>
Created by potrace 1.16, written by Peter Selinger 2001-2019
</metadata>
<g transform="translate(0.000000,938.000000) scale(0.100000,-0.100000)"
fill="#000000" stroke="none">
<path d="M7218 7733 c-10 -2 -20 -14 -23 -26 -7 -33 -33 -441 -46 -712 -11
-227 -13 -244 -41 -319 -38 -101 -42 -212 -10 -296 36 -95 37 -121 7 -195 -30
-76 -29 -94 16 -197 32 -74 38 -143 15 -186 -8 -15 -35 -47 -61 -72 -103 -100
-141 -178 -133 -277 6 -80 29 -123 106 -196 138 -131 162 -165 162 -229 0 -29
-3 -32 -52 -42 -42 -9 -86 -53 -115 -115 -27 -56 -27 -57 -20 -206 3 -83 -1
-94 -51 -119 -154 -78 -232 -226 -219 -412 7 -99 19 -140 60 -200 87 -130 280
-199 462 -165 188 35 363 200 415 394 17 65 8 179 -19 243 -26 59 -100 136
-153 158 -28 12 -35 20 -31 35 2 10 -2 32 -11 48 -8 17 -13 39 -10 50 3 11 -4
40 -15 64 -12 23 -21 54 -21 68 0 28 -108 141 -134 141 -21 0 -24 17 -31 205
-3 94 -10 215 -15 270 -45 480 -30 1726 26 2204 6 56 5 66 -11 78 -11 7 -21
12 -24 12 -3 -1 -14 -3 -23 -6z m-53 -2140 c3 -60 12 -171 20 -248 7 -77 12
-141 11 -143 -2 -1 -39 35 -82 80 -103 108 -122 162 -89 260 15 42 106 158
125 158 4 0 11 -48 15 -107z m55 -665 c-38 -11 -54 -28 -40 -42 5 -5 40 -10
77 -11 79 -2 113 -11 113 -30 0 -11 -7 -12 -32 -4 -62 18 -181 -13 -162 -42 2
-5 45 -7 93 -6 94 2 116 -7 143 -56 14 -27 6 -29 -35 -12 -59 25 -181 20 -242
-10 -27 -14 -53 -25 -57 -25 -17 0 -7 41 12 52 27 17 25 36 -5 44 -14 3 -25 9
-25 13 0 14 32 51 44 51 19 0 29 30 16 46 -17 19 35 43 90 43 l45 -1 -35 -10z
m167 -261 c38 -20 60 -54 45 -69 -6 -6 -18 -6 -33 2 -33 18 -185 24 -239 10
-61 -16 -82 -17 -86 -5 -5 13 54 53 103 71 49 18 167 13 210 -9z m-87 -164
c24 -125 94 -263 132 -263 16 0 7 31 -27 99 -33 64 -52 118 -69 195 l-7 29 43
-7 c24 -3 55 -8 70 -11 58 -9 128 -68 166 -140 24 -45 27 -61 27 -150 0 -92
-3 -106 -32 -167 -79 -166 -241 -268 -427 -268 -159 0 -282 71 -338 195 -18
42 -22 67 -22 150 2 178 57 265 218 344 46 23 89 41 95 41 9 0 -38 -121 -102
-261 -14 -31 -23 -60 -20 -63 15 -15 33 -2 58 42 30 53 100 225 110 272 6 29
9 30 59 30 l52 0 14 -67z"/>
<path d="M7328 4208 l-24 -32 -22 22 c-28 28 -34 28 -72 -5 -29 -24 -33 -25
-42 -10 -6 12 -22 17 -49 17 -33 0 -40 -3 -37 -17 2 -10 14 -20 27 -21 14 -2
33 -15 44 -28 24 -31 32 -30 67 7 l28 31 17 -26 c10 -14 21 -26 24 -26 18 0
91 79 91 98 0 32 -24 27 -52 -10z"/>
</g>
</svg>
